<?xml version="1.0" encoding="UTF-8"?>
<svg version="1.1" xmlns="http://www.w3.org/2000/svg" width="60" height="61">
<path d="M0 0 C5.08620644 -0.0997145 10.17182992 -0.17186281 15.25878906 -0.21972656 C16.98512702 -0.23970285 18.71139853 -0.26689372 20.4375 -0.30175781 C33.34174564 -0.55566079 43.43938258 -0.14217091 53.30859375 9.12890625 C60.44714794 17.02582878 60.62056892 25.88845825 60.17480469 35.98876953 C59.51035312 43.63367463 54.64328404 50.07553731 49 55 C43.59421878 58.50245954 38.42661132 60.58087317 32 61 C31.505 54.565 31.505 54.565 31 48 C32.65 48.33 34.3 48.66 36 49 C36.33 48.67 36.66 48.34 37 48 C35.02 47.01 33.04 46.02 31 45 C31.185625 44.4225 31.37125 43.845 31.5625 43.25 C32.2238169 40.69606643 32.2238169 40.69606643 31 37 C35.62 37.66 40.24 38.32 45 39 C45.33 37.68 45.66 36.36 46 35 C41.05 35 36.1 35 31 35 C31 34.01 31 33.02 31 32 C35.62 32 40.24 32 45 32 C45 30.68 45 29.36 45 28 C44.505 29.485 44.505 29.485 44 31 C42.39592672 31.02708567 40.7917215 31.04643483 39.1875 31.0625 C37.84751953 31.07990234 37.84751953 31.07990234 36.48046875 31.09765625 C34 31 34 31 31 30 C31 29.01 31 28.02 31 27 C31.99 26.67 32.98 26.34 34 26 C32.68 25.67 31.36 25.34 30 25 C30 24.34 30 23.68 30 23 C33.61973402 21.68373308 36.09567131 21 40 21 C40 20.01 40 19.02 40 18 C38.906875 18.495 37.81375 18.99 36.6875 19.5 C33 21 33 21 30 21 C30.33 20.01 30.66 19.02 31 18 C34.5625 16.8125 34.5625 16.8125 38 16 C37.505 15.01 37.505 15.01 37 14 C36.21625 14.495 35.4325 14.99 34.625 15.5 C32 17 32 17 30 17 C31.13304992 13.60085025 32.12518475 12.94745549 35 11 C34.01 11.66 33.02 12.32 32 13 C29.4375 12.625 29.4375 12.625 27 12 C26.34 12 25.68 12 25 12 C26.32 12.66 27.64 13.32 29 14 C28.67 14.99 28.34 15.98 28 17 C26.68 16.34 25.36 15.68 24 15 C24 15.66 24 16.32 24 17 C25.65 17.33 27.3 17.66 29 18 C29 18.99 29 19.98 29 21 C26.03 20.01 23.06 19.02 20 18 C20 18.66 20 19.32 20 20 C22.97 20.99 25.94 21.98 29 23 C29 23.66 29 24.32 29 25 C27.68 25.33 26.36 25.66 25 26 C26.32 26.33 27.64 26.66 29 27 C29 27.99 29 28.98 29 30 C25.98509443 31.00496852 23.95818308 31.10335303 20.8125 31.0625 C19.91144531 31.05347656 19.01039062 31.04445313 18.08203125 31.03515625 C17.39496094 31.02355469 16.70789063 31.01195313 16 31 C15.67 30.34 15.34 29.68 15 29 C15 29.99 15 30.98 15 32 C19.62 32 24.24 32 29 32 C29 32.99 29 33.98 29 35 C24.05 35 19.1 35 14 35 C15.04713225 36.27661453 15.04713225 36.27661453 17.3984375 36.0625 C19.37760646 36.02094265 21.35677315 35.97927656 23.3359375 35.9375 C26 36 26 36 29 37 C29.33 37.99 29.66 38.98 30 40 C25.38 40.99 20.76 41.98 16 43 C19.62683743 45.32209612 19.62683743 45.32209612 22.359375 44.5390625 C23.14828125 44.23742188 23.9371875 43.93578125 24.75 43.625 C25.54921875 43.32851563 26.3484375 43.03203125 27.171875 42.7265625 C27.77515625 42.48679688 28.3784375 42.24703125 29 42 C27.328125 45.84375 27.328125 45.84375 24.375 47.25 C23.59125 47.4975 22.8075 47.745 22 48 C25.04913228 49.01111093 25.04913228 49.01111093 28 48 C28 52.29 28 56.58 28 61 C18.76 61 9.52 61 0 61 C0.99 58.03 0.99 58.03 2 55 C2.29529844 52.46262318 2.29529844 52.46262318 2.25878906 49.91601562 C2.26509338 48.95481812 2.27139771 47.99362061 2.27789307 47.0032959 C2.2738446 45.98127075 2.26979614 44.95924561 2.265625 43.90625 C2.26753845 42.84136353 2.2694519 41.77647705 2.27142334 40.67932129 C2.27278105 38.43350996 2.26911361 36.18769067 2.26074219 33.94189453 C2.25003703 30.51186429 2.26065178 27.08235778 2.2734375 23.65234375 C2.27211583 21.46614468 2.26955329 19.27994594 2.265625 17.09375 C2.26967346 16.07172485 2.27372192 15.04969971 2.27789307 13.9967041 C2.24468907 8.93420791 2.02020812 4.73856165 0 0 Z M26 7 C26.33 7.99 26.66 8.98 27 10 C27.66 9.67 28.32 9.34 29 9 C28.01 8.34 27.02 7.68 26 7 Z M30 9 C29.67 9.66 29.34 10.32 29 11 C29.99 10.67 30.98 10.34 32 10 C31.34 9.67 30.68 9.34 30 9 Z M22 14 C22.33 14.66 22.66 15.32 23 16 C23.33 15.34 23.66 14.68 24 14 C23.34 14 22.68 14 22 14 Z M17 22 C17 23.32 17 24.64 17 26 C19.91652174 26.16681109 19.91652174 26.16681109 23 26 C23.66 25.34 24.32 24.68 25 24 C24.4225 23.855625 23.845 23.71125 23.25 23.5625 C21.16666667 23.04166667 19.08333333 22.52083333 17 22 Z M35 24 C36.83883881 26.28728734 36.83883881 26.28728734 39.625 26.125 C40.40875 26.08375 41.1925 26.0425 42 26 C42.33 24.68 42.66 23.36 43 22 C40.36423317 22 37.51486589 23.26840265 35 24 Z M17 29 C17 29.33 17 29.66 17 30 C19.64 30 22.28 30 25 30 C25 29.67 25 29.34 25 29 C22.36 29 19.72 29 17 29 Z M35 29 C35 29.33 35 29.66 35 30 C37.64 30 40.28 30 43 30 C43 29.67 43 29.34 43 29 C40.36 29 37.72 29 35 29 Z M20 37 C20 37.33 20 37.66 20 38 C21.98 38 23.96 38 26 38 C26 37.67 26 37.34 26 37 C24.02 37 22.04 37 20 37 Z M15 38 C15 38.33 15 38.66 15 39 C16.65 39 18.3 39 20 39 C20 38.67 20 38.34 20 38 C18.35 38 16.7 38 15 38 Z M34 41 C33.67 41.66 33.34 42.32 33 43 C35.97 43.99 38.94 44.98 42 46 C42.66 45.01 43.32 44.02 44 43 C40.49223216 41.39644899 37.85645121 40.77963136 34 41 Z " fill="#1B5E20" transform="translate(0,0)"/>
<path d="M0 0 C0.33 0 0.66 0 1 0 C1 16.17 1 32.34 1 49 C0.67 49 0.34 49 0 49 C0 32.83 0 16.66 0 0 Z " fill="#FFFFFF" transform="translate(1,6)"/>
<path d="M0 0 C2.20914 3.31371 2.22481553 4.3446021 2.125 8.1875 C2.10695313 9.08855469 2.08890625 9.98960938 2.0703125 10.91796875 C2.03550781 11.94857422 2.03550781 11.94857422 2 13 C1.34 12.67 0.68 12.34 0 12 C0 8.04 0 4.08 0 0 Z " fill="#FFFFFF" transform="translate(29,48)"/>
<path d="M0 0 C3.96 0 7.92 0 12 0 C11.67 0.66 11.34 1.32 11 2 C7.37 1.67 3.74 1.34 0 1 C0 0.67 0 0.34 0 0 Z " fill="#FFFFFF" transform="translate(33,36)"/>
<path d="M0 0 C-2.31 0.66 -4.62 1.32 -7 2 C-7.33 1.34 -7.66 0.68 -8 0 C-4.94736336 -0.98120464 -3.05263664 -0.98120464 0 0 Z " fill="#FFFFFF" transform="translate(25,43)"/>
<path d="M0 0 C1.65 0 3.3 0 5 0 C4.67 0.66 4.34 1.32 4 2 C2.68 1.34 1.36 0.68 0 0 Z " fill="#FFFFFF" transform="translate(38,43)"/>
<path d="M0 0 C0.66 0.33 1.32 0.66 2 1 C1.01 1 0.02 1 -1 1 C-0.67 0.67 -0.34 0.34 0 0 Z " fill="#FFFFFF" transform="translate(47,56)"/>
<path d="M0 0 C0.99 0.33 1.98 0.66 3 1 C2.01 1 1.02 1 0 1 C0 0.67 0 0.34 0 0 Z " fill="#FFFFFF" transform="translate(33,47)"/>
<path d="M0 0 C4 1 4 1 4 1 Z " fill="#FFFFFF" transform="translate(38,24)"/>
<path d="M0 0 C3 1 3 1 3 1 Z " fill="#FFFFFF" transform="translate(39,60)"/>
<path d="" fill="#FFFFFF" transform="translate(0,0)"/>
<path d="" fill="#FFFFFF" transform="translate(0,0)"/>
<path d="M0 0 C3 1 3 1 3 1 Z " fill="#FFFFFF" transform="translate(35,42)"/>
<path d="" fill="#FFFFFF" transform="translate(0,0)"/>
<path d="M0 0 C2 1 2 1 2 1 Z " fill="#FFFFFF" transform="translate(42,59)"/>
<path d="M0 0 C2 1 2 1 2 1 Z " fill="#FFFFFF" transform="translate(44,58)"/>
<path d="" fill="#FFFFFF" transform="translate(0,0)"/>
<path d="M0 0 C2 1 2 1 2 1 Z " fill="#FFFFFF" transform="translate(25,47)"/>
<path d="M0 0 C2 1 2 1 2 1 Z " fill="#FFFFFF" transform="translate(31,46)"/>
<path d="" fill="#FFFFFF" transform="translate(0,0)"/>
<path d="" fill="#FFFFFF" transform="translate(0,0)"/>
<path d="" fill="#FFFFFF" transform="translate(0,0)"/>
<path d="" fill="#FFFFFF" transform="translate(0,0)"/>
<path d="M0 0 C2 1 2 1 2 1 Z " fill="#FFFFFF" transform="translate(20,19)"/>
<path d="" fill="#FFFFFF" transform="translate(0,0)"/>
<path d="" fill="#FFFFFF" transform="translate(0,0)"/>
<path d="M0 0 C2 1 2 1 2 1 Z " fill="#FFFFFF" transform="translate(50,5)"/>
<path d="M0 0 C2 1 2 1 2 1 Z " fill="#FFFFFF" transform="translate(47,3)"/>
<path d="M0 0 C2 1 2 1 2 1 Z " fill="#FFFFFF" transform="translate(44,1)"/>
<path d="M0 0 C2 1 2 1 2 1 Z " fill="#FFFFFF" transform="translate(41,0)"/>
<path d="" fill="#FFFFFF" transform="translate(0,0)"/>
<path d="" fill="#FFFFFF" transform="translate(0,0)"/>
<path d="" fill="#FFFFFF" transform="translate(0,0)"/>
<path d="" fill="#FFFFFF" transform="translate(0,0)"/>
<path d="" fill="#FFFFFF" transform="translate(0,0)"/>
<path d="" fill="#FFFFFF" transform="translate(0,0)"/>
<path d="" fill="#FFFFFF" transform="translate(0,0)"/>
<path d="" fill="#FFFFFF" transform="translate(0,0)"/>
<path d="" fill="#FFFFFF" transform="translate(0,0)"/>
<path d="" fill="#FFFFFF" transform="translate(0,0)"/>
<path d="" fill="#FFFFFF" transform="translate(0,0)"/>
<path d="" fill="#FFFFFF" transform="translate(0,0)"/>
<path d="" fill="#FFFFFF" transform="translate(0,0)"/>
<path d="" fill="#FFFFFF" transform="translate(0,0)"/>
<path d="" fill="#FFFFFF" transform="translate(0,0)"/>
<path d="" fill="#FFFFFF" transform="translate(0,0)"/>
<path d="" fill="#FFFFFF" transform="translate(0,0)"/>
<path d="" fill="#FFFFFF" transform="translate(0,0)"/>
<path d="" fill="#FFFFFF" transform="translate(0,0)"/>
<path d="" fill="#FFFFFF" transform="translate(0,0)"/>
<path d="" fill="#FFFFFF" transform="translate(0,0)"/>
<path d="" fill="#FFFFFF" transform="translate(0,0)"/>
<path d="" fill="#FFFFFF" transform="translate(0,0)"/>
<path d="" fill="#FFFFFF" transform="translate(0,0)"/>
<path d="" fill="#FFFFFF" transform="translate(0,0)"/>
<path d="" fill="#FFFFFF" transform="translate(0,0)"/>
<path d="" fill="#FFFFFF" transform="translate(0,0)"/>
<path d="" fill="#FFFFFF" transform="translate(0,0)"/>
<path d="" fill="#FFFFFF" transform="translate(0,0)"/>
</svg>
